<mxfile host="app.diagrams.net" agent="Mozilla/5.0 (Windows NT 10.0; Win64; x64) AppleWebKit/537.36 (KHTML, like Gecko) Chrome/134.0.0.0 Safari/537.36" version="26.1.1">
  <diagram id="C5RBs43oDa-KdzZeNtuy" name="Page-1">
    <mxGraphModel dx="1817" dy="1679" grid="1" gridSize="10" guides="1" tooltips="1" connect="1" arrows="1" fold="1" page="1" pageScale="1" pageWidth="827" pageHeight="1169" math="0" shadow="0">
      <root>
        <mxCell id="WIyWlLk6GJQsqaUBKTNV-0" />
        <mxCell id="WIyWlLk6GJQsqaUBKTNV-1" parent="WIyWlLk6GJQsqaUBKTNV-0" />
        <mxCell id="zwa98DrIaMzMjE7SkLwU-2" style="edgeStyle=none;curved=1;rounded=0;orthogonalLoop=1;jettySize=auto;html=1;fontSize=12;startSize=8;endSize=8;entryX=0.363;entryY=-0.012;entryDx=0;entryDy=0;entryPerimeter=0;" edge="1" parent="WIyWlLk6GJQsqaUBKTNV-1" target="zwa98DrIaMzMjE7SkLwU-39">
          <mxGeometry relative="1" as="geometry">
            <mxPoint x="210" y="-90" as="sourcePoint" />
            <mxPoint x="210" y="180" as="targetPoint" />
          </mxGeometry>
        </mxCell>
        <mxCell id="zwa98DrIaMzMjE7SkLwU-4" value="boot da aplicaçao" style="edgeLabel;html=1;align=center;verticalAlign=middle;resizable=0;points=[];fontSize=12;rotation=270;" vertex="1" connectable="0" parent="zwa98DrIaMzMjE7SkLwU-2">
          <mxGeometry x="-0.1685" y="1" relative="1" as="geometry">
            <mxPoint x="-1" y="12" as="offset" />
          </mxGeometry>
        </mxCell>
        <mxCell id="WIyWlLk6GJQsqaUBKTNV-3" value="spring boot" style="rounded=1;whiteSpace=wrap;html=1;fontSize=12;glass=0;strokeWidth=1;shadow=0;" parent="WIyWlLk6GJQsqaUBKTNV-1" vertex="1">
          <mxGeometry x="160" y="-130" width="120" height="40" as="geometry" />
        </mxCell>
        <mxCell id="zwa98DrIaMzMjE7SkLwU-15" value="" style="edgeStyle=none;curved=1;rounded=0;orthogonalLoop=1;jettySize=auto;html=1;fontSize=12;startSize=8;endSize=8;entryX=0;entryY=1;entryDx=0;entryDy=0;exitX=1.013;exitY=0.425;exitDx=0;exitDy=0;exitPerimeter=0;" edge="1" parent="WIyWlLk6GJQsqaUBKTNV-1" source="zwa98DrIaMzMjE7SkLwU-39" target="WIyWlLk6GJQsqaUBKTNV-7">
          <mxGeometry relative="1" as="geometry">
            <mxPoint x="260" y="230" as="sourcePoint" />
            <mxPoint x="400" y="210" as="targetPoint" />
          </mxGeometry>
        </mxCell>
        <mxCell id="zwa98DrIaMzMjE7SkLwU-17" value="envia o projeto" style="edgeLabel;html=1;align=center;verticalAlign=middle;resizable=0;points=[];fontSize=12;rotation=-37;" vertex="1" connectable="0" parent="zwa98DrIaMzMjE7SkLwU-15">
          <mxGeometry x="-0.2245" relative="1" as="geometry">
            <mxPoint as="offset" />
          </mxGeometry>
        </mxCell>
        <mxCell id="zwa98DrIaMzMjE7SkLwU-24" style="edgeStyle=none;curved=1;rounded=0;orthogonalLoop=1;jettySize=auto;html=1;fontSize=12;startSize=8;endSize=8;entryX=1;entryY=1;entryDx=0;entryDy=0;" edge="1" parent="WIyWlLk6GJQsqaUBKTNV-1" target="WIyWlLk6GJQsqaUBKTNV-12">
          <mxGeometry relative="1" as="geometry">
            <mxPoint x="-45" y="230" as="targetPoint" />
            <mxPoint x="185" y="230" as="sourcePoint" />
          </mxGeometry>
        </mxCell>
        <mxCell id="zwa98DrIaMzMjE7SkLwU-25" value="solicita o token" style="edgeLabel;html=1;align=center;verticalAlign=middle;resizable=0;points=[];fontSize=12;rotation=-46;" vertex="1" connectable="0" parent="zwa98DrIaMzMjE7SkLwU-24">
          <mxGeometry x="0.1826" y="5" relative="1" as="geometry">
            <mxPoint y="-5" as="offset" />
          </mxGeometry>
        </mxCell>
        <mxCell id="zwa98DrIaMzMjE7SkLwU-30" style="edgeStyle=none;curved=1;rounded=0;orthogonalLoop=1;jettySize=auto;html=1;fontSize=12;startSize=8;endSize=8;entryX=1;entryY=1;entryDx=0;entryDy=0;exitX=0.013;exitY=0.263;exitDx=0;exitDy=0;exitPerimeter=0;" edge="1" parent="WIyWlLk6GJQsqaUBKTNV-1" source="zwa98DrIaMzMjE7SkLwU-39" target="zwa98DrIaMzMjE7SkLwU-28">
          <mxGeometry relative="1" as="geometry">
            <mxPoint x="-110" y="-30" as="targetPoint" />
            <mxPoint x="180" y="180" as="sourcePoint" />
          </mxGeometry>
        </mxCell>
        <mxCell id="zwa98DrIaMzMjE7SkLwU-31" value="envia a requisiçao" style="edgeLabel;html=1;align=center;verticalAlign=middle;resizable=0;points=[];fontSize=12;rotation=34;" vertex="1" connectable="0" parent="zwa98DrIaMzMjE7SkLwU-30">
          <mxGeometry x="0.2193" y="4" relative="1" as="geometry">
            <mxPoint x="29" y="18" as="offset" />
          </mxGeometry>
        </mxCell>
        <mxCell id="zwa98DrIaMzMjE7SkLwU-35" style="edgeStyle=none;curved=1;rounded=0;orthogonalLoop=1;jettySize=auto;html=1;fontSize=12;startSize=8;endSize=8;entryX=0;entryY=1;entryDx=0;entryDy=0;" edge="1" parent="WIyWlLk6GJQsqaUBKTNV-1" target="zwa98DrIaMzMjE7SkLwU-33">
          <mxGeometry relative="1" as="geometry">
            <mxPoint x="460" y="420" as="targetPoint" />
            <mxPoint x="240" y="240" as="sourcePoint" />
          </mxGeometry>
        </mxCell>
        <mxCell id="zwa98DrIaMzMjE7SkLwU-37" value="solicitaçao de dados" style="edgeLabel;html=1;align=center;verticalAlign=middle;resizable=0;points=[];fontSize=12;rotation=45;" vertex="1" connectable="0" parent="zwa98DrIaMzMjE7SkLwU-35">
          <mxGeometry x="-0.3792" y="4" relative="1" as="geometry">
            <mxPoint x="39" y="37" as="offset" />
          </mxGeometry>
        </mxCell>
        <mxCell id="zwa98DrIaMzMjE7SkLwU-12" value="" style="edgeStyle=none;curved=1;rounded=0;orthogonalLoop=1;jettySize=auto;html=1;fontSize=12;startSize=8;endSize=8;exitX=0;exitY=0.25;exitDx=0;exitDy=0;" edge="1" parent="WIyWlLk6GJQsqaUBKTNV-1" source="WIyWlLk6GJQsqaUBKTNV-7">
          <mxGeometry relative="1" as="geometry">
            <mxPoint x="480" y="190" as="sourcePoint" />
            <mxPoint x="250" y="190" as="targetPoint" />
          </mxGeometry>
        </mxCell>
        <mxCell id="zwa98DrIaMzMjE7SkLwU-16" value="arquitetura MVC" style="edgeLabel;html=1;align=center;verticalAlign=middle;resizable=0;points=[];fontSize=12;rotation=-35;" vertex="1" connectable="0" parent="zwa98DrIaMzMjE7SkLwU-12">
          <mxGeometry x="0.1167" y="-3" relative="1" as="geometry">
            <mxPoint as="offset" />
          </mxGeometry>
        </mxCell>
        <mxCell id="WIyWlLk6GJQsqaUBKTNV-7" value="spring MVC" style="rounded=1;whiteSpace=wrap;html=1;fontSize=12;glass=0;strokeWidth=1;shadow=0;" parent="WIyWlLk6GJQsqaUBKTNV-1" vertex="1">
          <mxGeometry x="485" width="120" height="40" as="geometry" />
        </mxCell>
        <mxCell id="WIyWlLk6GJQsqaUBKTNV-11" value="Thymeleaf" style="rounded=1;whiteSpace=wrap;html=1;fontSize=12;glass=0;strokeWidth=1;shadow=0;" parent="WIyWlLk6GJQsqaUBKTNV-1" vertex="1">
          <mxGeometry x="160" y="510" width="120" height="40" as="geometry" />
        </mxCell>
        <mxCell id="zwa98DrIaMzMjE7SkLwU-23" style="edgeStyle=none;curved=1;rounded=0;orthogonalLoop=1;jettySize=auto;html=1;fontSize=12;startSize=8;endSize=8;entryX=-0.025;entryY=0.413;entryDx=0;entryDy=0;entryPerimeter=0;exitX=1;exitY=0;exitDx=0;exitDy=0;" edge="1" parent="WIyWlLk6GJQsqaUBKTNV-1" source="WIyWlLk6GJQsqaUBKTNV-12" target="zwa98DrIaMzMjE7SkLwU-39">
          <mxGeometry relative="1" as="geometry">
            <mxPoint x="170" y="190" as="targetPoint" />
            <mxPoint x="-50" y="190" as="sourcePoint" />
          </mxGeometry>
        </mxCell>
        <mxCell id="zwa98DrIaMzMjE7SkLwU-26" value="devoluçao criptografada" style="edgeLabel;html=1;align=center;verticalAlign=middle;resizable=0;points=[];fontSize=12;rotation=-45;" vertex="1" connectable="0" parent="zwa98DrIaMzMjE7SkLwU-23">
          <mxGeometry x="-0.2909" y="2" relative="1" as="geometry">
            <mxPoint x="18" y="-15" as="offset" />
          </mxGeometry>
        </mxCell>
        <mxCell id="WIyWlLk6GJQsqaUBKTNV-12" value="spring security" style="rounded=1;whiteSpace=wrap;html=1;fontSize=12;glass=0;strokeWidth=1;shadow=0;" parent="WIyWlLk6GJQsqaUBKTNV-1" vertex="1">
          <mxGeometry x="-165" y="440" width="120" height="40" as="geometry" />
        </mxCell>
        <mxCell id="zwa98DrIaMzMjE7SkLwU-0" style="edgeStyle=none;curved=1;rounded=0;orthogonalLoop=1;jettySize=auto;html=1;fontSize=12;startSize=8;endSize=8;entryX=0.575;entryY=1.075;entryDx=0;entryDy=0;entryPerimeter=0;" edge="1" parent="WIyWlLk6GJQsqaUBKTNV-1" target="WIyWlLk6GJQsqaUBKTNV-3">
          <mxGeometry relative="1" as="geometry">
            <mxPoint x="230" y="170" as="sourcePoint" />
            <mxPoint x="230" y="-80" as="targetPoint" />
          </mxGeometry>
        </mxCell>
        <mxCell id="zwa98DrIaMzMjE7SkLwU-9" value="requisaçao" style="edgeLabel;html=1;align=center;verticalAlign=middle;resizable=0;points=[];fontSize=12;rotation=270;" vertex="1" connectable="0" parent="zwa98DrIaMzMjE7SkLwU-0">
          <mxGeometry x="0.0352" y="1" relative="1" as="geometry">
            <mxPoint as="offset" />
          </mxGeometry>
        </mxCell>
        <mxCell id="zwa98DrIaMzMjE7SkLwU-18" style="edgeStyle=none;curved=1;rounded=0;orthogonalLoop=1;jettySize=auto;html=1;entryX=0.588;entryY=1.038;entryDx=0;entryDy=0;entryPerimeter=0;fontSize=12;startSize=8;endSize=8;exitX=0.592;exitY=0.05;exitDx=0;exitDy=0;exitPerimeter=0;" edge="1" parent="WIyWlLk6GJQsqaUBKTNV-1" source="WIyWlLk6GJQsqaUBKTNV-11" target="zwa98DrIaMzMjE7SkLwU-39">
          <mxGeometry relative="1" as="geometry">
            <mxPoint x="230" y="500" as="sourcePoint" />
            <mxPoint x="230" y="237.03999999999996" as="targetPoint" />
          </mxGeometry>
        </mxCell>
        <mxCell id="zwa98DrIaMzMjE7SkLwU-20" value="renderiza informaçoes" style="edgeLabel;html=1;align=center;verticalAlign=middle;resizable=0;points=[];fontSize=12;rotation=270;" vertex="1" connectable="0" parent="zwa98DrIaMzMjE7SkLwU-18">
          <mxGeometry x="0.1588" y="-1" relative="1" as="geometry">
            <mxPoint x="-2" y="16" as="offset" />
          </mxGeometry>
        </mxCell>
        <mxCell id="zwa98DrIaMzMjE7SkLwU-19" style="edgeStyle=none;curved=1;rounded=0;orthogonalLoop=1;jettySize=auto;html=1;entryX=0.4;entryY=-0.05;entryDx=0;entryDy=0;entryPerimeter=0;fontSize=12;startSize=8;endSize=8;exitX=0.363;exitY=1;exitDx=0;exitDy=0;exitPerimeter=0;" edge="1" parent="WIyWlLk6GJQsqaUBKTNV-1" source="zwa98DrIaMzMjE7SkLwU-39" target="WIyWlLk6GJQsqaUBKTNV-11">
          <mxGeometry relative="1" as="geometry">
            <mxPoint x="210" y="240" as="sourcePoint" />
            <Array as="points">
              <mxPoint x="210" y="310" />
            </Array>
          </mxGeometry>
        </mxCell>
        <mxCell id="zwa98DrIaMzMjE7SkLwU-21" value="envia o conteudo" style="edgeLabel;html=1;align=center;verticalAlign=middle;resizable=0;points=[];fontSize=12;rotation=270;" vertex="1" connectable="0" parent="zwa98DrIaMzMjE7SkLwU-19">
          <mxGeometry x="0.1892" y="-3" relative="1" as="geometry">
            <mxPoint x="2" y="-27" as="offset" />
          </mxGeometry>
        </mxCell>
        <mxCell id="zwa98DrIaMzMjE7SkLwU-29" style="edgeStyle=none;curved=1;rounded=0;orthogonalLoop=1;jettySize=auto;html=1;fontSize=12;startSize=8;endSize=8;entryX=0.225;entryY=0.075;entryDx=0;entryDy=0;entryPerimeter=0;" edge="1" parent="WIyWlLk6GJQsqaUBKTNV-1" target="zwa98DrIaMzMjE7SkLwU-39">
          <mxGeometry relative="1" as="geometry">
            <mxPoint x="200" y="170" as="targetPoint" />
            <mxPoint x="-40" y="10" as="sourcePoint" />
          </mxGeometry>
        </mxCell>
        <mxCell id="zwa98DrIaMzMjE7SkLwU-32" value="retorna dados solicitados" style="edgeLabel;html=1;align=center;verticalAlign=middle;resizable=0;points=[];fontSize=12;rotation=35;" vertex="1" connectable="0" parent="zwa98DrIaMzMjE7SkLwU-29">
          <mxGeometry x="-0.2216" y="4" relative="1" as="geometry">
            <mxPoint x="45" y="29" as="offset" />
          </mxGeometry>
        </mxCell>
        <mxCell id="zwa98DrIaMzMjE7SkLwU-28" value="banco de dados" style="rounded=1;whiteSpace=wrap;html=1;" vertex="1" parent="WIyWlLk6GJQsqaUBKTNV-1">
          <mxGeometry x="-155" width="110" height="40" as="geometry" />
        </mxCell>
        <mxCell id="zwa98DrIaMzMjE7SkLwU-34" style="edgeStyle=none;curved=1;rounded=0;orthogonalLoop=1;jettySize=auto;html=1;fontSize=12;startSize=8;endSize=8;exitX=0;exitY=0;exitDx=0;exitDy=0;entryX=1.025;entryY=0.613;entryDx=0;entryDy=0;entryPerimeter=0;" edge="1" parent="WIyWlLk6GJQsqaUBKTNV-1" source="zwa98DrIaMzMjE7SkLwU-33" target="zwa98DrIaMzMjE7SkLwU-39">
          <mxGeometry relative="1" as="geometry">
            <mxPoint x="490" y="450" as="sourcePoint" />
            <mxPoint x="260" y="227" as="targetPoint" />
          </mxGeometry>
        </mxCell>
        <mxCell id="zwa98DrIaMzMjE7SkLwU-36" value="informaçoes de consumo" style="edgeLabel;html=1;align=center;verticalAlign=middle;resizable=0;points=[];fontSize=12;rotation=45;" vertex="1" connectable="0" parent="zwa98DrIaMzMjE7SkLwU-34">
          <mxGeometry x="0.5673" y="-2" relative="1" as="geometry">
            <mxPoint x="89" y="85" as="offset" />
          </mxGeometry>
        </mxCell>
        <mxCell id="zwa98DrIaMzMjE7SkLwU-33" value="spring data JPA" style="rounded=1;whiteSpace=wrap;html=1;" vertex="1" parent="WIyWlLk6GJQsqaUBKTNV-1">
          <mxGeometry x="490" y="440" width="110" height="40" as="geometry" />
        </mxCell>
        <mxCell id="zwa98DrIaMzMjE7SkLwU-39" value="PetClinic" style="ellipse;whiteSpace=wrap;html=1;" vertex="1" parent="WIyWlLk6GJQsqaUBKTNV-1">
          <mxGeometry x="180" y="170" width="80" height="80" as="geometry" />
        </mxCell>
      </root>
    </mxGraphModel>
  </diagram>
</mxfile>
